{
  "accessors": [
    {
      "name": "Lowpoly_Notebook_Cube.001-Mesh_0_positions",
      "componentType": 5126,
      "count": 170,
      "min": [
        -1.999521017074585,
        -0.12090999633073807,
        -1.6349689960479736
      ],
      "max": [
        0.2218320071697235,
        0.07101000100374222,
        1.6376889944076538
      ],
      "type": "VEC3",
      "bufferView": 0,
      "byteOffset": 0
    },
    {
      "name": "Lowpoly_Notebook_Cube.001-Mesh_0_normals",
      "componentType": 5126,
      "count": 170,
      "min": [
        -0.9924412369728088,
        -0.999951958656311,
        -1
      ],
      "max": [
        0.9963037371635437,
        0.9999994039535522,
        1
      ],
      "type": "VEC3",
      "bufferView": 1,
      "byteOffset": 0
    },
    {
      "name": "Lowpoly_Notebook_Cube.001-Mesh_0_texcoords",
      "componentType": 5126,
      "count": 170,
      "min": [
        0.003800000064074993,
        0.0034000000450760126
      ],
      "max": [
        0.9908999800682068,
        0.9908999800682068
      ],
      "type": "VEC2",
      "bufferView": 2,
      "byteOffset": 0
    },
    {
      "name": "Lowpoly_Notebook_Cube.001-Mesh_0_indices",
      "componentType": 5123,
      "count": 348,
      "min": [
        0
      ],
      "max": [
        169
      ],
      "type": "SCALAR",
      "bufferView": 3,
      "byteOffset": 0
    },
    {
      "name": "Lowpoly_Notebook_Cube.001-Mesh_1_positions",
      "componentType": 5126,
      "count": 197,
      "min": [
        0.13629400730133057,
        -0.007116000168025494,
        -1.6291929483413696
      ],
      "max": [
        0.28941598534584045,
        2.222398042678833,
        1.6324089765548706
      ],
      "type": "VEC3",
      "bufferView": 0,
      "byteOffset": 2040
    },
    {
      "name": "Lowpoly_Notebook_Cube.001-Mesh_1_normals",
      "componentType": 5126,
      "count": 197,
      "min": [
        -0.9999988675117493,
        -0.9917243123054504,
        -1
      ],
      "max": [
        0.9999951124191284,
        0.983942985534668,
        1
      ],
      "type": "VEC3",
      "bufferView": 1,
      "byteOffset": 2040
    },
    {
      "name": "Lowpoly_Notebook_Cube.001-Mesh_1_texcoords",
      "componentType": 5126,
      "count": 197,
      "min": [
        0.01119999960064888,
        0.0044999998062849045
      ],
      "max": [
        0.9994000196456909,
        0.9955000281333923
      ],
      "type": "VEC2",
      "bufferView": 2,
      "byteOffset": 1360
    },
    {
      "name": "Lowpoly_Notebook_Cube.001-Mesh_1_indices",
      "componentType": 5123,
      "count": 483,
      "min": [
        0
      ],
      "max": [
        196
      ],
      "type": "SCALAR",
      "bufferView": 3,
      "byteOffset": 696
    }
  ],
  "asset": {
    "generator": "obj2gltf",
    "version": "2.0"
  },
  "buffers": [
    {
      "name": "Lowpoly_Notebook_2",
      "byteLength": 13408,
      "uri": "data:application/octet-stream;base64,"
    }
  ],
  "bufferViews": [
    {
      "name": "bufferView_0",
      "buffer": 0,
      "byteLength": 4404,
      "byteOffset": 0,
      "byteStride": 12,
      "target": 34962
    },
    {
      "name": "bufferView_1",
      "buffer": 0,
      "byteLength": 4404,
      "byteOffset": 4404,
      "byteStride": 12,
      "target": 34962
    },
    {
      "name": "bufferView_2",
      "buffer": 0,
      "byteLength": 2936,
      "byteOffset": 8808,
      "byteStride": 8,
      "target": 34962
    },
    {
      "name": "bufferView_3",
      "buffer": 0,
      "byteLength": 1664,
      "byteOffset": 11744,
      "target": 34963
    }
  ],
  "materials": [
    {
      "name": "Lowpoly_Body",
      "pbrMetallicRoughness": {
        "baseColorFactor": [
          0.64,
          0.64,
          0.64,
          1
        ],
        "metallicFactor": 0,
        "roughnessFactor": 0.903921569
      },
      "emissiveFactor": [
        0,
        0,
        0
      ],
      "alphaMode": "OPAQUE",
      "doubleSided": false
    },
    {
      "name": "Lowpoly_Screen",
      "pbrMetallicRoughness": {
        "baseColorFactor": [
          0,
          0,
          0,
          1
        ],
        "metallicFactor": 0,
        "roughnessFactor": 0.903921569
      },
      "emissiveFactor": [
        0,
        0,
        0
      ],
      "alphaMode": "OPAQUE",
      "doubleSided": false
    }
  ],
  "meshes": [
    {
      "name": "Lowpoly_Notebook_Cube.001-Mesh",
      "primitives": [
        {
          "attributes": {
            "POSITION": 0,
            "NORMAL": 1,
            "TEXCOORD_0": 2
          },
          "indices": 3,
          "material": 0,
          "mode": 4
        },
        {
          "attributes": {
            "POSITION": 4,
            "NORMAL": 5,
            "TEXCOORD_0": 6
          },
          "indices": 7,
          "material": 1,
          "mode": 4
        }
      ]
    }
  ],
  "nodes": [
    {
      "name": "Lowpoly_Notebook_Cube.001",
      "mesh": 0
    }
  ],
  "scene": 0,
  "scenes": [
    {
      "nodes": [
        0
      ]
    }
  ]
}
